<svg width="39" height="38" viewBox="0 0 39 38" fill="none" xmlns="http://www.w3.org/2000/svg">
<path d="M13.1667 19.3164H24.25" stroke="#9747FF" stroke-width="2.38771" stroke-miterlimit="10" stroke-linecap="round" stroke-linejoin="round"/>
<path d="M13.1667 25.6484H20.1017" stroke="#9747FF" stroke-width="2.38771" stroke-miterlimit="10" stroke-linecap="round" stroke-linejoin="round"/>
<path d="M16.3333 9.49935H22.6667C25.8333 9.49935 25.8333 7.91602 25.8333 6.33268C25.8333 3.16602 24.25 3.16602 22.6667 3.16602H16.3333C14.75 3.16602 13.1667 3.16602 13.1667 6.33268C13.1667 9.49935 14.75 9.49935 16.3333 9.49935Z" stroke="#9747FF" stroke-width="2.38771" stroke-miterlimit="10" stroke-linecap="round" stroke-linejoin="round"/>
<path d="M25.8333 6.36523C31.1058 6.65023 33.75 8.59773 33.75 15.8336V25.3336C33.75 31.6669 32.1666 34.8336 24.25 34.8336H14.75C6.8333 34.8336 5.24997 31.6669 5.24997 25.3336V15.8336C5.24997 8.61357 7.89414 6.65023 13.1666 6.36523" stroke="#9747FF" stroke-width="2.38771" stroke-miterlimit="10" stroke-linecap="round" stroke-linejoin="round"/>
</svg>
